<?xml version="1.0" encoding="UTF-8"?> <svg xmlns="http://www.w3.org/2000/svg" xml:space="preserve" viewBox="0 0 765.2 122.9"> <path fill="#fff" d="M215.6 58.4a23.8 23.8 0 0 0 10.9-20.7c0-15.5-11.4-25.5-29-25.5h-34.7v98.3h35.5c19.4 0 31.9-11.2 31.9-28.4.1-11.1-5.6-20.1-14.6-23.7zm-37.3-32.5h18.9c8.4 0 13.5 4.9 13.5 13.2 0 8.1-5.3 13.6-13.2 13.6h-19.2V25.9zM199 96.8h-20.7V65.9h20.6c9.5 0 15.6 6.1 15.6 15.5 0 9.5-5.9 15.4-15.5 15.4zm62.3-84.6h-15.5v98.3h58.5V96.8h-43zM375 75.1c0 14.1-8.8 22.6-23.6 22.6-14.6 0-23.3-8.3-23.3-22.3V12.2h-15.5v63.2c0 22 15.6 36.7 38.9 36.7 23.3 0 38.9-14.8 38.9-36.7V12.2H375v62.9zm46.5-7.3H456V54.1h-34.5V25.9h42.4V12.2H406v98.3h60.2V96.8h-44.7zm192.4-54.9-.2-.7h-15.6l-35.4 98.3h16l9.5-27.7H623l9.7 27.7H649l-35.1-97.6zm-21.4 56.7 10.3-29.2c1-3 2.2-7.4 3-10.4.7 3 1.9 7.4 2.9 10.4l10.2 29.2h-26.4zm49.7-43.7h33v84.6h15.5V25.9h33V12.2h-81.5zM522.6 97.7c-19.8 0-34.7-15.9-34.7-37 0-20.8 14.5-35.8 34.6-35.8 10.8 0 19.4 4.6 23.8 7.7l9-11.1a52.7 52.7 0 0 0-33.4-10.9 49 49 0 0 0-50 50.2 49.6 49.6 0 0 0 50.2 51.3c18.6 0 30.8-8.8 35.7-13.2l-9.7-10.4a42 42 0 0 1-25.5 9.2zm242.6-71.8h-2l-.8-9.2v-.2l-3.2 7h-1.6l-3.2-7v.2l-.8 9.2h-2l1.1-13.7h1.8l3.6 7.8.3.8.3-.8 3.6-7.8h1.8l1.1 13.7zm-19.1 0H744V14.1h-4.8v-1.9h11.6v1.9H746v11.8zM139.2 3.6s-14.5 7.3-25.1 15.6a61.2 61.2 0 0 0-89-.1C14.5 10.9 0 3.6 0 3.6s3.4 21.4 10.3 42a61.5 61.5 0 1 0 118.6 0c6.9-20.7 10.3-42 10.3-42zM69.6 105.2a43.9 43.9 0 0 1-42.4-32.7c18.8-1.2 37.6-5.7 37.6-5.7S47.6 54.7 28.3 47a43.8 43.8 0 0 1 82.6 0c-19.4 7.7-36.6 19.7-36.6 19.7s18.8 4.5 37.6 5.7a43.8 43.8 0 0 1-42.3 32.8z"></path> </svg> 