<?xml version="1.0" encoding="utf-8"?>
<!-- Generator: Adobe Illustrator 27.4.1, SVG Export Plug-In . SVG Version: 6.00 Build 0)  -->
<svg version="1.1" id="Layer_1" xmlns="http://www.w3.org/2000/svg" xmlns:xlink="http://www.w3.org/1999/xlink" x="0px" y="0px"
	 viewBox="0 0 487.6 396.9" style="enable-background:new 0 0 487.6 396.9;" xml:space="preserve">
<style type="text/css">
	.st0{fill-rule:evenodd;clip-rule:evenodd;fill:#8C989B;}
	.st1{fill-rule:evenodd;clip-rule:evenodd;fill:#264183;}
	.st2{fill:#264183;}
	.st3{fill:#8C989B;}
</style>
<g>
	<g>
		<path class="st0" d="M302.2,156.9c0,11.8-10.9,21.1-23.2,18.3c-6.8-1.5-12.3-7-13.9-13.8c-2.8-12.3,6.5-23.3,18.3-23.3
			C293.8,138.1,302.2,146.5,302.2,156.9L302.2,156.9L302.2,156.9z"/>
		<path class="st1" d="M223.1,78.3c0,11.8-10.9,21.1-23.3,18.3c-6.8-1.6-12.3-7.1-13.9-13.8c-2.8-12.3,6.5-23.3,18.3-23.3
			C214.7,59.5,223.1,68,223.1,78.3L223.1,78.3L223.1,78.3z"/>
	</g>
	<path class="st2" d="M360.9,19.4v196.5c0,10.4-8.5,18.8-18.9,18.8H224.6l39-39c6,3,12.7,4.8,19.8,4.8c10.5,0,20.1-3.7,27.6-9.8
		c2.2-1.8,4.3-3.9,6.1-6.1c7.5-9.1,11.4-21.2,9.5-34.2c-2.7-18.4-16.5-32.9-34.8-36.3c-10.4-2-20.3-0.2-28.6,4.2l-20.1-20.1
		c3-5.9,4.8-12.6,4.8-19.8S246,64,242.8,58l57.5-57.5H342C352.4,0.5,360.9,9,360.9,19.4L360.9,19.4z"/>
	<path class="st3" d="M239.7,156.9c0,7.1,1.7,13.8,4.8,19.8l-58.1,58.1h-40.9c-1.4,0-2.9-0.2-4.4-0.5c-6.8-1.5-12.4-7-13.9-13.8
		c-0.3-1.5-0.5-3-0.5-4.5V19.4c0-10.4,8.4-18.9,18.8-18.9h116.6l-38.8,38.7c-5.8-2.9-12.3-4.5-19.2-4.5c-10.4,0-20,3.7-27.5,9.8h0
		c-2.2,1.8-4.3,3.8-6.1,6c-1.2,1.5-1.2,1.5,0,0c-8.1,9.8-12,23.1-9,37.3c3.5,16.8,16.8,29.8,33.6,33.2c10.5,2.1,20.4,0.4,28.8-3.9
		l20.4,20.3C241.4,143.3,239.7,149.9,239.7,156.9L239.7,156.9z"/>
</g>
<g>
	<path class="st2" d="M18,395.3H2.9c-0.8,0-1.5-0.6-1.5-1.5v-81.7c0-0.8,0.7-1.5,1.5-1.5H18c0.8,0,1.5,0.6,1.5,1.5v81.7
		C19.4,394.6,18.8,395.3,18,395.3L18,395.3z"/>
	<path class="st2" d="M91.8,337.8c0,8-2.5,14.4-7.6,19.2c-5,4.8-11.8,7.1-20.5,7.1H51.2c-0.8,0-1.5,0.6-1.5,1.5v28.3
		c0,0.8-0.7,1.5-1.5,1.5H33.2c-0.8,0-1.5-0.6-1.5-1.5v-81.7c0-0.8,0.7-1.5,1.5-1.5h30.5c8.7,0,15.5,2.4,20.5,7.3
		C89.3,322.7,91.8,329.4,91.8,337.8L91.8,337.8z M73.8,337.8c0-3.7-0.9-6.4-2.9-8.2c-1.8-1.9-4.5-2.9-8-2.9H51.2
		c-0.8,0-1.5,0.6-1.5,1.5v18.4c0,0.8,0.7,1.5,1.5,1.5H63c3.5,0,6.1-0.8,8-2.6C72.9,343.6,73.8,341.1,73.8,337.8L73.8,337.8z"/>
	<path class="st2" d="M168,349.6v13.1c0,0.8-0.6,1.5-1.4,1.5h-20.4c-0.8,0-1.4,0.6-1.4,1.5v28.3c0,0.8-0.6,1.5-1.4,1.5h-15.1
		c-0.8,0-1.4-0.6-1.4-1.5v-81.7c0-0.8,0.7-1.5,1.4-1.5h51.7c0.8,0,1.4,0.6,1.4,1.5v13.1c0,0.8-0.6,1.5-1.4,1.5h-33.7
		c-0.8,0-1.4,0.6-1.4,1.5v18.5c0,0.8,0.6,1.5,1.4,1.5h20.4C167.3,348.1,168,348.8,168,349.6L168,349.6z"/>
	<path class="st2" d="M411.4,395.3h-15.1c-0.8,0-1.5-0.6-1.5-1.5v-81.7c0-0.8,0.6-1.5,1.5-1.5h15.1c0.8,0,1.5,0.6,1.5,1.5v81.7
		C412.8,394.6,412.2,395.3,411.4,395.3z"/>
	<path class="st2" d="M370.5,361.7c-0.2-0.5-0.1-1,0.4-1.2c1.7-1,3.4-2.2,4.8-3.5c5.1-4.8,7.6-11.2,7.6-19.2c0-1.6-0.1-3.2-0.3-4.6
		c-0.8-6.2-3.2-11.3-7.3-15.1c-5-4.9-11.8-7.3-20.5-7.3h-30.5c-0.8,0-1.5,0.6-1.5,1.5v81.7c0,0.8,0.6,1.5,1.5,1.5h15.1
		c0.8,0,1.5-0.6,1.5-1.5v-28.3c0-0.8,0.6-1.5,1.5-1.5h8c0.8,0,1.5,0.5,1.8,1.1l13.7,29.2c0.2,0.5,0.8,0.8,1.3,0.8h17.4
		c1.1,0,1.8-1.1,1.3-2.1L370.5,361.7L370.5,361.7z M362.4,345.4c-1.9,1.8-4.5,2.6-8,2.6h-11.8c-0.8,0-1.5-0.6-1.5-1.5v-18.4
		c0-0.8,0.6-1.5,1.5-1.5h11.8c3.5,0,6.2,1,8,2.9c1.4,1.3,2.3,3.2,2.7,5.6c0.2,1.6,0.2,1.6,0,0c0.1,0.8,0.2,1.7,0.2,2.6
		C365.3,341.1,364.3,343.6,362.4,345.4L362.4,345.4z"/>
	<path class="st2" d="M218.2,310.7h-15.9c-0.6,0-1.2,0.4-1.4,1l-25.7,81.7c-0.3,0.9,0.4,1.9,1.4,1.9h15.5c0.6,0,1.2-0.4,1.4-1.1
		l3.9-13.9c0.2-0.6,0.7-1.1,1.4-1.1h23c0.6,0,1.2,0.4,1.4,1.1l3.9,13.9c0.2,0.6,0.7,1.1,1.4,1.1h15.5c1,0,1.7-1,1.4-1.9l-25.7-81.7
		C219.4,311.1,218.8,310.7,218.2,310.7L218.2,310.7z M202.4,362.4l7-25c0.3-0.9,1.6-0.9,1.8,0l7,25c0.2,0.8-0.4,1.5-1.1,1.5h-13.5
		C202.8,363.9,202.2,363.2,202.4,362.4L202.4,362.4z"/>
	<path class="st2" d="M310.1,358.5c-1.4-2.4-3.2-4.2-5.5-5.7c-0.5-0.3-0.6-1.1-0.1-1.5c1-0.9,2.2-2.1,2.8-3c0.5-0.6,0.9-1.2,1.2-1.8
		c2.1-3.4,3.1-7.4,3.1-11.9c0-7.4-2.5-13.3-7.5-17.5c-4.9-4.3-11.6-6.4-20.2-6.4h-30c-0.8,0-1.4,0.6-1.4,1.5v81.7
		c0,0.8,0.6,1.5,1.4,1.5h32.7c8.2,0,14.8-2.1,19.4-6.5c4.6-4.3,7-10.5,7-18.2C313.2,365.9,312.1,361.8,310.1,358.5L310.1,358.5z
		 M270.5,328.1c0-0.8,0.6-1.5,1.5-1.5l11.7,0c3.4,0,5.9,0.8,7.5,2.2c0.1,0,0.1,0.1,0.2,0.1c1.5,1.6,2.3,3.6,2.3,6.4
		c0,3.1-0.8,5.3-2.5,7c-1.5,1.6-4,2.4-7.5,2.4l-11.7,0c-0.8,0-1.4-0.6-1.4-1.5L270.5,328.1L270.5,328.1z M292.7,376.8
		c-1.5,1.7-4,2.5-7.5,2.5H272c-0.8,0-1.5-0.6-1.5-1.5v-16.2c0-0.8,0.6-1.5,1.5-1.5h13.2c3.4,0,5.9,0.8,7.5,2.3c0,0,0.1,0.1,0.2,0.2
		c1.5,1.7,2.3,3.8,2.3,6.7C295.2,372.7,294.4,375,292.7,376.8L292.7,376.8z"/>
	<path class="st2" d="M465.2,376.8c-2,2.1-5.1,3.2-9.3,3.2c-4.6,0-8-1.3-10.1-4c-2.1-2.7-3.2-7.4-3.2-13.8v-18.3
		c0-6.4,1.1-11.1,3.2-13.8c2.1-2.7,5.5-4,10.1-4c4.2,0,7.3,1.1,9.3,3.2c1.9,1.9,2.9,4.4,3.2,7.5c0.1,0.8,0.7,1.3,1.4,1.3h14.9
		c0.8,0,1.5-0.7,1.5-1.5c-0.3-8.4-3-14.8-8.2-19.5c-5.5-4.9-13-7.4-22.4-7.4c-20.6,0-31.1,11.4-31.1,34v18.8c0,22.5,10.5,34,31.1,34
		c9.4,0,16.9-2.5,22.4-7.4c5.1-4.7,7.9-11.1,8.2-19.5c0-0.8-0.6-1.5-1.5-1.5h-14.9c-0.8,0-1.4,0.6-1.4,1.3
		C468.1,372.5,467.1,375,465.2,376.8L465.2,376.8z"/>
</g>
</svg>
